<svg width="24" height="24" version="1.1" viewBox="0 0 11.493 11.209" xmlns="http://www.w3.org/2000/svg">
 <g transform="translate(-53.974 -102.41)">
  <path d="m59.72 102.41c-3.1732 0-5.746 2.5728-5.746 5.7468 0 2.5389 1.6464 4.6926 3.9299 5.4529 0.28751 0.0526 0.39229-0.12489 0.39229-0.27729 0-0.13617-0.0049-0.49777-0.0078-0.97719-1.5984 0.34713-1.9357-0.77047-1.9357-0.77047-0.26141-0.66357-0.63818-0.84031-0.63818-0.84031-0.52176-0.35666 0.03951-0.34961 0.03951-0.34961 0.57679 0.0409 0.88018 0.59232 0.88018 0.59232 0.51259 0.87806 1.3451 0.62441 1.6725 0.47766 0.05221-0.37148 0.20038-0.62477 0.36477-0.76835-1.276-0.14499-2.6176-0.63818-2.6176-2.8402 0-0.62723 0.22401-1.1402 0.59161-1.542-0.05927-0.14534-0.25647-0.72954 0.05609-1.5208 0 0 0.4826-0.15452 1.5804 0.58914 0.45826-0.12736 0.95003-0.19121 1.4386-0.19333 0.48789 2e-3 0.97966 0.066 1.4386 0.19333 1.0971-0.74366 1.5787-0.58914 1.5787-0.58914 0.31362 0.79128 0.11642 1.3755 0.05715 1.5208 0.3683 0.40182 0.5909 0.91476 0.5909 1.542 0 2.2077-1.3437 2.6935-2.624 2.8356 0.20638 0.17745 0.39017 0.52811 0.39017 1.0643 0 0.768-0.0071 1.3878-0.0071 1.5762 0 0.15382 0.10336 0.33267 0.39511 0.27658 2.2818-0.76165 3.9268-2.9139 3.9268-5.4522 0-3.1739-2.5732-5.7468-5.7471-5.7468" fill="rgba(0, 0, 0, 0.54)" fill-rule="evenodd"/>
 </g>
</svg>
